<svg width="138" height="48" viewBox="0 0 138 48" fill="none" xmlns="http://www.w3.org/2000/svg">
<g clip-path="url(#clip0_305_6283)">
<mask id="mask0_305_6283" style="mask-type:luminance" maskUnits="userSpaceOnUse" x="0" y="0" width="138" height="48">
<path d="M138 0H0.399902V48H138V0Z" fill="white"/>
</mask>
<g mask="url(#mask0_305_6283)">
<path d="M7.8479 7.94141H11.0079V14.7814C11.0079 15.7734 10.9279 16.6054 10.7759 17.2774C10.6239 17.9494 10.2719 18.5494 9.73591 19.0774C8.8239 19.9814 7.4799 20.4294 5.7039 20.4294C3.9279 20.4294 2.5839 19.9814 1.6719 19.0774C1.1359 18.5494 0.7839 17.9494 0.6319 17.2774C0.4799 16.6054 0.399902 15.7734 0.399902 14.7814V7.94141H3.5599V14.3414C3.5599 14.7254 3.5599 15.0534 3.5839 15.3094C3.5999 15.5654 3.6479 15.8614 3.7279 16.1814C3.8079 16.5014 3.9199 16.7654 4.0639 16.9574C4.2079 17.1494 4.4239 17.3174 4.7039 17.4454C4.9839 17.5814 5.3199 17.6454 5.7039 17.6454C6.0879 17.6454 6.4239 17.5814 6.7039 17.4454C6.9839 17.3094 7.19991 17.1494 7.34391 16.9574C7.48791 16.7654 7.5999 16.5094 7.6799 16.1814C7.7599 15.8614 7.8079 15.5654 7.8239 15.3094C7.8399 15.0534 7.8479 14.7254 7.8479 14.3414V7.94141Z" fill="#F66917"/>
<path d="M20.9437 8.62128L19.6877 11.0693C19.0397 10.5333 18.3437 10.2613 17.5917 10.2613C17.2557 10.2613 16.9517 10.3493 16.6637 10.5333C16.3757 10.7173 16.2397 10.9653 16.2397 11.2773C16.2397 11.4933 16.3277 11.6853 16.5037 11.8613C16.6797 12.0293 16.8477 12.1493 16.9997 12.2133C17.1517 12.2773 17.3677 12.3493 17.6397 12.4373L18.4477 12.6773C19.3917 12.9573 20.1277 13.3493 20.6557 13.8613C21.1837 14.3733 21.4477 15.0853 21.4477 15.9973C21.4477 17.4693 21.0317 18.5653 20.1917 19.2693C19.2877 20.0293 18.1357 20.4133 16.7437 20.4133C15.2157 20.4133 13.7917 19.9493 12.4717 19.0293L13.8237 16.4773C14.7837 17.3173 15.7197 17.7333 16.6317 17.7333C17.0397 17.7333 17.3997 17.6293 17.7037 17.4213C18.0077 17.2133 18.1677 16.9093 18.1677 16.5093C18.1677 15.9573 17.6557 15.5333 16.6317 15.2373C16.5997 15.2293 16.4717 15.1893 16.2477 15.1253C15.6637 14.9653 15.2077 14.8133 14.8797 14.6773C14.5437 14.5413 14.2157 14.3413 13.8797 14.0853C13.5437 13.8293 13.3117 13.5093 13.1677 13.1253C13.0237 12.7413 12.9597 12.2613 12.9597 11.6933C12.9597 10.4693 13.3517 9.47728 14.1357 8.73328C14.9197 7.98928 15.9277 7.61328 17.1517 7.61328C17.7677 7.61328 18.4157 7.70128 19.1117 7.88528C19.8077 8.06928 20.4237 8.30928 20.9597 8.61328L20.9437 8.62128Z" fill="#F66917"/>
<path d="M35.9361 17.9894H31.5841L30.7441 20.1014H27.3921L32.0721 7.94141H35.5281L40.1121 20.1014H36.7441L35.9521 17.9894H35.9361ZM35.0801 15.5734L33.7921 11.7014H33.7601L32.4561 15.5734H35.0881H35.0801Z" fill="#F66917"/>
<path d="M46.984 12.037V14.517C46.456 14.133 45.952 13.933 45.464 13.933C44.896 13.933 44.416 14.125 44.032 14.517C43.648 14.901 43.448 15.381 43.448 15.949C43.448 16.517 43.64 17.029 44.032 17.405C44.416 17.789 44.912 17.981 45.512 17.981C46.08 17.981 46.568 17.797 46.976 17.413V19.893C46.352 20.205 45.664 20.357 44.912 20.357C43.664 20.357 42.6 19.949 41.728 19.125C40.848 18.301 40.416 17.269 40.416 16.037C40.416 14.725 40.856 13.645 41.744 12.805C42.632 11.957 43.728 11.541 45.04 11.541C45.752 11.541 46.392 11.701 46.976 12.021L46.984 12.037Z" fill="#F66917"/>
<path d="M57.856 11.8296V20.1016H54.92V19.1816H54.888C54.64 19.5816 54.2881 19.8776 53.8401 20.0776C53.3921 20.2776 52.904 20.3736 52.384 20.3736C51.184 20.3736 50.1841 19.9416 49.3921 19.0776C48.6 18.2136 48.208 17.1736 48.208 15.9576C48.208 14.7416 48.6 13.7016 49.376 12.8456C50.152 11.9816 51.144 11.5576 52.352 11.5576C53.448 11.5576 54.304 11.9176 54.92 12.6376V11.8296H57.856ZM54.512 14.6456C54.176 14.2856 53.7121 14.1016 53.1361 14.1016C52.5601 14.1016 52.0961 14.2856 51.7601 14.6456C51.4241 15.0056 51.256 15.4456 51.256 15.9736C51.256 16.5016 51.4241 16.9576 51.7601 17.3016C52.0961 17.6536 52.5601 17.8296 53.1361 17.8296C53.7121 17.8296 54.176 17.6536 54.512 17.3016C54.848 16.9496 55.0161 16.5096 55.0161 15.9736C55.0161 15.4376 54.848 15.0056 54.512 14.6456Z" fill="#F66917"/>
<path d="M66.0321 20.1096V19.1896H66.0001C65.7521 19.5896 65.4001 19.8856 64.9521 20.0856C64.5041 20.2856 64.0161 20.3816 63.5041 20.3816C62.2961 20.3816 61.3041 19.9496 60.5121 19.0856C59.7201 18.2216 59.3281 17.1816 59.3281 15.9656C59.3281 14.7496 59.7201 13.7096 60.4961 12.8536C61.2721 11.9896 62.2641 11.5656 63.4721 11.5656C64.5681 11.5656 65.4241 11.9256 66.0401 12.6456V6.72559H68.9761V20.1176H66.0401L66.0321 20.1096ZM65.6241 14.6456C65.2881 14.2856 64.8241 14.1016 64.2481 14.1016C63.6721 14.1016 63.2081 14.2856 62.8721 14.6456C62.5361 15.0056 62.3681 15.4456 62.3681 15.9736C62.3681 16.5016 62.5361 16.9576 62.8721 17.3016C63.2081 17.6536 63.6721 17.8296 64.2481 17.8296C64.8241 17.8296 65.2881 17.6536 65.6241 17.3016C65.9601 16.9496 66.1361 16.5096 66.1361 15.9736C66.1361 15.4376 65.9681 15.0056 65.6241 14.6456Z" fill="#F66917"/>
<path d="M79.3121 16.1574V16.4614H73.1361C73.1361 17.6854 73.7521 18.3014 74.9761 18.3014C75.6081 18.3014 76.0801 18.0454 76.3761 17.5414H79.2001C78.9761 18.4694 78.4721 19.1734 77.6881 19.6534C76.9041 20.1334 76.008 20.3814 74.992 20.3814C73.576 20.3814 72.4161 19.9974 71.5361 19.2214C70.648 18.4454 70.208 17.3654 70.208 15.9814C70.208 14.5974 70.632 13.5414 71.472 12.7494C72.312 11.9574 73.424 11.5654 74.7841 11.5654C76.1441 11.5654 77.3281 11.9734 78.1201 12.7974C78.9121 13.6214 79.3121 14.7414 79.3121 16.1574ZM73.184 14.7734H76.5841C76.5121 14.3894 76.3121 14.0694 76.0001 13.8294C75.6881 13.5894 75.328 13.4694 74.92 13.4694C74.48 13.4694 74.096 13.5814 73.784 13.8054C73.472 14.0294 73.264 14.3574 73.176 14.7734H73.184Z" fill="#F66917"/>
<path d="M83.584 11.8296V12.8616H83.616C84.272 11.9896 85.144 11.5576 86.232 11.5576C87.544 11.5576 88.488 12.0856 89.056 13.1416C89.336 12.6376 89.728 12.2456 90.232 11.9736C90.736 11.7016 91.28 11.5656 91.864 11.5656C93.744 11.5656 94.688 12.6536 94.688 14.8376V20.1096H91.752V16.1576C91.752 15.8856 91.752 15.6936 91.752 15.5736C91.752 15.4536 91.728 15.2696 91.688 15.0056C91.648 14.7416 91.592 14.5576 91.52 14.4216C91.448 14.2936 91.32 14.1736 91.16 14.0616C90.992 13.9496 90.792 13.8936 90.552 13.8936C90.296 13.8936 90.072 13.9416 89.888 14.0456C89.704 14.1496 89.568 14.2696 89.472 14.3976C89.376 14.5336 89.304 14.7096 89.256 14.9416C89.208 15.1736 89.176 15.3656 89.168 15.5336C89.16 15.7016 89.152 15.9096 89.152 16.1576V20.1096H86.216V16.1576C86.216 15.9416 86.216 15.7736 86.216 15.6616C86.216 15.5496 86.2 15.3736 86.176 15.1656C86.152 14.9496 86.12 14.7816 86.064 14.6456C86.008 14.5176 85.936 14.3816 85.848 14.2456C85.76 14.1096 85.632 14.0056 85.472 13.9416C85.312 13.8776 85.128 13.8456 84.92 13.8456C84.712 13.8456 84.536 13.8776 84.368 13.9416C84.208 14.0056 84.08 14.1096 83.992 14.2456C83.904 14.3816 83.824 14.5176 83.776 14.6456C83.72 14.7736 83.688 14.9496 83.664 15.1656C83.64 15.3816 83.632 15.5496 83.624 15.6616C83.616 15.7736 83.624 15.9496 83.624 16.1576V20.1096H80.688V11.8376H83.624L83.584 11.8296Z" fill="#F66917"/>
<path d="M99.3921 18.9731L95.3921 11.8291H98.7761L100.984 16.0691L103.144 11.8291H106.48L99.8481 24.2371H96.5601L99.3841 18.9811L99.3921 18.9731Z" fill="#F66917"/>
<path d="M21.8203 37.3253H24.5653C26.3803 37.3253 27.6703 36.2753 27.6703 34.5203C27.6703 33.2303 26.9053 32.2253 25.6003 32.0153C26.2603 31.6103 26.7703 30.9053 26.7703 29.8253C26.7703 28.3253 25.7503 27.3203 24.0103 27.3203H21.8203V37.3253ZM22.4803 27.9203H23.7553C24.2803 27.9203 24.9253 27.9503 25.4203 28.3403C25.7503 28.6103 26.0953 29.1053 26.0953 29.9003C26.0953 30.5903 25.8403 31.1003 25.4353 31.4303C25.0003 31.7903 24.5803 31.8503 24.0703 31.8503H22.4803V27.9203ZM22.4803 32.4503H24.0403C25.1503 32.4503 25.6453 32.6153 25.9153 32.7353C26.6653 33.0803 26.9803 33.6953 26.9803 34.5953C26.9803 35.0603 26.8753 35.6453 26.3353 36.1253C25.6603 36.7253 24.8353 36.7253 24.1603 36.7253H22.4803V32.4503ZM35.038 34.3403C35.038 32.3903 33.793 31.0703 32.143 31.0703C30.643 31.0703 29.173 32.1653 29.173 34.2953C29.173 36.0803 30.283 37.4903 32.188 37.4903C33.703 37.4903 34.513 36.5153 34.873 35.8253L34.363 35.5253C33.973 36.3353 33.223 36.9203 32.233 36.9203C30.943 36.9203 29.803 35.9003 29.803 34.3403H35.038ZM29.848 33.7703C30.013 32.5853 30.898 31.6403 32.143 31.6403C33.358 31.6403 34.258 32.5553 34.408 33.7703H29.848ZM38.5239 31.7753V31.2053H37.4589V29.0153H36.8589V31.2053H36.1839V31.7753H36.8589V37.3253H37.4589V31.7753H38.5239ZM41.5855 31.7753V31.2053H40.5205V29.0153H39.9205V31.2053H39.2455V31.7753H39.9205V37.3253H40.5205V31.7753H41.5855ZM48.2655 34.3403C48.2655 32.3903 47.0205 31.0703 45.3705 31.0703C43.8705 31.0703 42.4005 32.1653 42.4005 34.2953C42.4005 36.0803 43.5105 37.4903 45.4155 37.4903C46.9305 37.4903 47.7405 36.5153 48.1005 35.8253L47.5905 35.5253C47.2005 36.3353 46.4505 36.9203 45.4605 36.9203C44.1705 36.9203 43.0305 35.9003 43.0305 34.3403H48.2655ZM43.0755 33.7703C43.2405 32.5853 44.1255 31.6403 45.3705 31.6403C46.5855 31.6403 47.4855 32.5553 47.6355 33.7703H43.0755ZM50.0415 37.3253H50.6415V34.0403C50.6415 33.2753 50.6565 31.6403 51.8865 31.6403C52.1565 31.6403 52.2765 31.7153 52.3365 31.7603L52.6365 31.2203C52.4115 31.1003 52.1565 31.0703 51.9915 31.0703C51.3315 31.0703 50.8665 31.4753 50.6415 32.0003V31.2053H50.0415V37.3253ZM57.7089 27.3203V37.3253H61.1589V36.7253H58.3689V27.3203H57.7089ZM67.455 34.3403C67.455 32.3903 66.21 31.0703 64.56 31.0703C63.06 31.0703 61.59 32.1653 61.59 34.2953C61.59 36.0803 62.7 37.4903 64.605 37.4903C66.12 37.4903 66.93 36.5153 67.29 35.8253L66.78 35.5253C66.39 36.3353 65.64 36.9203 64.65 36.9203C63.36 36.9203 62.22 35.9003 62.22 34.3403H67.455ZM62.265 33.7703C62.43 32.5853 63.315 31.6403 64.56 31.6403C65.775 31.6403 66.675 32.5553 66.825 33.7703H62.265ZM74.2109 32.2703C73.6259 31.4453 72.7859 31.0703 71.8259 31.0703C70.0409 31.0703 68.8409 32.3753 68.8409 34.2653C68.8409 36.2753 70.2209 37.4903 71.8259 37.4903C72.6209 37.4903 73.5959 37.1753 74.2109 36.2303V37.3253H74.8109V31.2053H74.2109V32.2703ZM71.8559 31.6403C72.9059 31.6403 74.2409 32.4053 74.2409 34.2203C74.2409 35.6303 73.4009 36.9203 71.8709 36.9203C70.3259 36.9203 69.4709 35.6003 69.4709 34.2203C69.4709 32.5553 70.6409 31.6403 71.8559 31.6403ZM76.9653 37.3253H77.5653V34.0403C77.5653 33.2753 77.5803 31.6403 78.8103 31.6403C79.0803 31.6403 79.2003 31.7153 79.2603 31.7603L79.5603 31.2203C79.3353 31.1003 79.0803 31.0703 78.9153 31.0703C78.2553 31.0703 77.7903 31.4753 77.5653 32.0003V31.2053H76.9653V37.3253ZM80.8618 37.3253H81.4618V34.1453C81.4618 33.5453 81.5218 32.9753 81.7918 32.4953C82.0168 32.0903 82.4518 31.6403 83.2918 31.6403C84.0268 31.6403 84.3568 32.0153 84.4918 32.2403C84.7168 32.5853 84.7318 33.0503 84.7318 33.4703V37.3253H85.3318V33.4703C85.3318 32.9303 85.3018 32.3603 85.0318 31.9253C84.8968 31.7153 84.4318 31.0703 83.3368 31.0703C82.3018 31.0703 81.7468 31.6553 81.4618 32.1653V31.2053H80.8618V37.3253ZM87.4975 31.2053V37.3253H88.0975V31.2053H87.4975ZM87.7975 29.7203C88.0975 29.7203 88.3375 29.4953 88.3375 29.1653C88.3375 28.8353 88.0975 28.6103 87.7975 28.6103C87.4975 28.6103 87.2575 28.8353 87.2575 29.1653C87.2575 29.4953 87.4975 29.7203 87.7975 29.7203ZM90.2514 37.3253H90.8514V34.1453C90.8514 33.5453 90.9114 32.9753 91.1814 32.4953C91.4064 32.0903 91.8414 31.6403 92.6814 31.6403C93.4164 31.6403 93.7464 32.0153 93.8814 32.2403C94.1064 32.5853 94.1214 33.0503 94.1214 33.4703V37.3253H94.7214V33.4703C94.7214 32.9303 94.6914 32.3603 94.4214 31.9253C94.2864 31.7153 93.8214 31.0703 92.7264 31.0703C91.6914 31.0703 91.1364 31.6553 90.8514 32.1653V31.2053H90.2514V37.3253ZM101.927 31.2053V32.2703C101.402 31.5203 100.592 31.0703 99.5872 31.0703C97.6672 31.0703 96.4972 32.4953 96.4972 34.2653C96.4972 36.3953 98.0122 37.4903 99.5122 37.4903C100.382 37.4903 101.312 37.1303 101.927 36.2753V37.1453C101.927 37.7753 101.867 40.2053 99.4522 40.2053C98.1472 40.2053 97.1872 39.4253 97.0822 38.1503H96.4522C96.5272 39.8453 97.8622 40.7753 99.4522 40.7753C101.372 40.7753 102.527 39.4553 102.527 37.1453V31.2053H101.927ZM99.5272 31.6403C101.027 31.6403 101.957 32.8103 101.957 34.2353C101.957 35.7353 101.012 36.9203 99.4972 36.9203C98.0572 36.9203 97.1272 35.7653 97.1272 34.2953C97.1272 32.8853 98.0122 31.6403 99.5272 31.6403ZM73.1997 60.3253L71.9097 58.9453C73.0497 57.7453 73.3497 56.3953 73.3497 55.3453C73.3497 52.4653 71.0697 50.1853 68.1597 50.1853C65.2347 50.1853 62.9697 52.4653 62.9697 55.3453C62.9697 58.2253 65.2347 60.4903 68.1597 60.4903C69.9147 60.4903 71.0097 59.7103 71.4447 59.3653L72.3297 60.3253H73.1997ZM68.1597 59.8903C65.5797 59.8903 63.6597 57.8953 63.6597 55.3453C63.6597 52.7803 65.5797 50.7853 68.1597 50.7853C70.7397 50.7853 72.6597 52.7953 72.6597 55.3453C72.6597 56.9503 71.9697 57.9403 71.4747 58.4803L69.3897 56.2303H68.5197L71.0247 58.9153C70.0347 59.6953 68.9697 59.8903 68.1597 59.8903ZM75.2368 54.2053V58.0603C75.2368 58.5553 75.2818 59.2003 75.7018 59.7403C76.1668 60.3403 76.9018 60.4903 77.4418 60.4903C77.9818 60.4903 78.7168 60.3403 79.1818 59.7403C79.6018 59.2003 79.6468 58.5553 79.6468 58.0603V54.2053H79.0468V57.8953C79.0468 58.3303 79.0318 58.9753 78.6568 59.4253C78.2818 59.8753 77.7268 59.9203 77.4418 59.9203C77.1568 59.9203 76.6018 59.8753 76.2268 59.4253C75.8518 58.9753 75.8368 58.3303 75.8368 57.8953V54.2053H75.2368ZM86.7939 55.2703C86.2089 54.4453 85.3689 54.0703 84.4089 54.0703C82.6239 54.0703 81.4239 55.3753 81.4239 57.2653C81.4239 59.2753 82.8039 60.4903 84.4089 60.4903C85.2039 60.4903 86.1789 60.1753 86.7939 59.2303V60.3253H87.3939V54.2053H86.7939V55.2703ZM84.4389 54.6403C85.4889 54.6403 86.8239 55.4053 86.8239 57.2203C86.8239 58.6303 85.9839 59.9203 84.4539 59.9203C82.9089 59.9203 82.0539 58.6003 82.0539 57.2203C82.0539 55.5553 83.2239 54.6403 84.4389 54.6403ZM89.5483 49.3903V60.3253H90.1483V49.3903H89.5483ZM92.3022 54.2053V60.3253H92.9022V54.2053H92.3022ZM92.6022 52.7203C92.9022 52.7203 93.1422 52.4953 93.1422 52.1653C93.1422 51.8353 92.9022 51.6103 92.6022 51.6103C92.3022 51.6103 92.0622 51.8353 92.0622 52.1653C92.0622 52.4953 92.3022 52.7203 92.6022 52.7203ZM96.7661 54.7753V54.2053H95.7011V52.0153H95.1011V54.2053H94.4261V54.7753H95.1011V60.3253H95.7011V54.7753H96.7661ZM98.7741 63.7753H99.4641L103.484 54.2053H102.794L100.559 59.6503L97.9941 54.2053H97.3041L100.214 60.4303L98.7741 63.7753Z" fill="#F66917"/>
<path d="M137.68 0H112.08V3.19629H137.68V0Z" fill="#F66917"/>
<path d="M131.287 4.7998H118.482V7.99609H131.287V4.7998Z" fill="#F66917"/>
<path d="M134.484 13.4385H137.68V32.6459L124.885 45.4508L112.08 32.6459V13.4385H115.276V31.0428L124.885 40.6515L134.484 31.0428V13.4385Z" fill="#F66917"/>
<path d="M121.679 27.203V28.8061L124.885 32.0023L128.081 28.8061V25.5999H118.482V9.59863H131.287V20.8005H128.081V12.7949H121.679V22.4036H131.287V30.3993L124.885 36.8017L118.482 30.3993V27.203H121.679Z" fill="#F66917"/>
</g>
</g>
<defs>
<clipPath id="clip0_305_6283">
<rect width="138" height="48" fill="white"/>
</clipPath>
</defs>
</svg>
